<svg version="1.1" xmlns="http://www.w3.org/2000/svg" xmlns:xlink="http://www.w3.org/1999/xlink" width="985" height="732"><defs></defs><g><g transform="translate(-94,-10) scale(1,1)"><rect fill="#C0C0C0" stroke="none" x="403.25" y="27" width="185" height="117" opacity="0.2"></rect></g><g transform="translate(-94,-10) scale(1,1)"><rect fill="#ffffff" stroke="none" x="396.25" y="20" width="185" height="117"></rect></g><g transform="translate(-94,-10) scale(1,1)"><path fill="none" stroke="#000000" d="M 396.25 20 L 581.25 20 L 581.25 137 L 396.25 137 L 396.25 20 Z Z" stroke-miterlimit="10"></path></g><g transform="translate(-94,-10) scale(1,1)"><path fill="none" stroke="#000000" d="M 396.25 45 L 581.25 45" stroke-miterlimit="10"></path></g><g transform="translate(-94,-10) scale(1,1)"><path fill="none" stroke="#000000" d="M 396.25 128 L 581.25 128" stroke-miterlimit="10"></path></g><g transform="translate(-94,-10) scale(1,1)"><g><path fill="none" stroke="none"></path><text fill="#000000" stroke="none" font-family="Arial" font-size="13px" font-style="normal" font-weight="bold" text-decoration="none" x="475.25" y="39.5">User</text></g></g><g transform="translate(-94,-10) scale(1,1)"><g><path fill="none" stroke="none"></path><text fill="#000000" stroke="none" font-family="Arial" font-size="13px" font-style="normal" font-weight="normal" text-decoration="none" x="401.25" y="62.5">+id: Long</text></g></g><g transform="translate(-94,-10) scale(1,1)"><g><path fill="none" stroke="none"></path><text fill="#000000" stroke="none" font-family="Arial" font-size="13px" font-style="normal" font-weight="normal" text-decoration="none" x="401.25" y="77.5">+username: String</text></g></g><g transform="translate(-94,-10) scale(1,1)"><g><path fill="none" stroke="none"></path><text fill="#000000" stroke="none" font-family="Arial" font-size="13px" font-style="normal" font-weight="normal" text-decoration="none" x="401.25" y="92.5">+email: String</text></g></g><g transform="translate(-94,-10) scale(1,1)"><g><path fill="none" stroke="none"></path><text fill="#000000" stroke="none" font-family="Arial" font-size="13px" font-style="normal" font-weight="normal" text-decoration="none" x="401.25" y="107.5">+passwordHash: String</text></g></g><g transform="translate(-94,-10) scale(1,1)"><g><path fill="none" stroke="none"></path><text fill="#000000" stroke="none" font-family="Arial" font-size="13px" font-style="normal" font-weight="normal" text-decoration="none" x="401.25" y="122.5">+references: Set&lt;Reference&gt;</text></g></g><g transform="translate(-94,-10) scale(1,1)"><rect fill="#C0C0C0" stroke="none" x="175" y="87" width="121" height="44" opacity="0.2"></rect></g><g transform="translate(-94,-10) scale(1,1)"><rect fill="#ffffff" stroke="none" x="168" y="80" width="121" height="44"></rect></g><g transform="translate(-94,-10) scale(1,1)"><path fill="none" stroke="#000000" d="M 168 80 L 289 80 L 289 124 L 168 124 L 168 80 Z Z" stroke-miterlimit="10"></path></g><g transform="translate(-94,-10) scale(1,1)"><path fill="none" stroke="#000000" d="M 168 105 L 289 105" stroke-miterlimit="10"></path></g><g transform="translate(-94,-10) scale(1,1)"><path fill="none" stroke="#000000" d="M 168 115 L 289 115" stroke-miterlimit="10"></path></g><g transform="translate(-94,-10) scale(1,1)"><g><path fill="none" stroke="none"></path><text fill="#000000" stroke="none" font-family="Arial" font-size="13px" font-style="normal" font-weight="bold" text-decoration="none" x="191" y="99.5">UserDaoImpl</text></g></g><g transform="translate(-94,-10) scale(1,1)"><path fill="none" stroke="#000000" d="M 290 96 L 395 87" stroke-miterlimit="10" stroke-dasharray="3"></path></g><g transform="translate(-94,-10) scale(1,1)"><path fill="none" stroke="#000000" d="M 385.2339505811872 92.06204294226211 L 395 87 L 384.51495533942347 83.67376512168555" stroke-miterlimit="10"></path></g><g transform="translate(-94,-10) scale(1,1)"><path fill="#C0C0C0" stroke="none" d="M 253 250.5 C 253 244.1487248 258.1487248 239 264.5 239 C 270.8512752 239 276 244.1487248 276 250.5 C 276 256.8512752 270.8512752 262 264.5 262 C 258.1487248 262 253 256.8512752 253 250.5 Z" opacity="0.2"></path></g><g transform="translate(-94,-10) scale(1,1)"><path fill="#ffffff" stroke="none" d="M 246 243.5 C 246 237.1487248 251.1487248 232 257.5 232 C 263.8512752 232 269 237.1487248 269 243.5 C 269 249.8512752 263.8512752 255 257.5 255 C 251.1487248 255 246 249.8512752 246 243.5 Z"></path></g><g transform="translate(-94,-10) scale(1,1)"><path fill="none" stroke="#000000" d="M 246 243.5 C 246 237.1487248 251.1487248 232 257.5 232 C 263.8512752 232 269 237.1487248 269 243.5 C 269 249.8512752 263.8512752 255 257.5 255 C 251.1487248 255 246 249.8512752 246 243.5 Z" stroke-miterlimit="10"></path></g><g transform="translate(-94,-10) scale(1,1)"><path fill="none" stroke="#000000" d="M 176 280 L 339 280" stroke-miterlimit="10"></path></g><g transform="translate(-94,-10) scale(1,1)"><g><path fill="none" stroke="none"></path><text fill="#000000" stroke="none" font-family="Arial" font-size="13px" font-style="normal" font-weight="bold" text-decoration="none" x="232.5" y="274.5">UserDao</text></g></g><g transform="translate(-94,-10) scale(1,1)"><g><path fill="none" stroke="none"></path><text fill="#000000" stroke="none" font-family="Arial" font-size="13px" font-style="normal" font-weight="normal" text-decoration="none" x="181" y="297.5">+insertUser(User): Long</text></g></g><g transform="translate(-94,-10) scale(1,1)"><g><path fill="none" stroke="none"></path><text fill="#000000" stroke="none" font-family="Arial" font-size="13px" font-style="normal" font-weight="normal" text-decoration="none" x="181" y="312.5">+deleteUser(User): void</text></g></g><g transform="translate(-94,-10) scale(1,1)"><g><path fill="none" stroke="none"></path><text fill="#000000" stroke="none" font-family="Arial" font-size="13px" font-style="normal" font-weight="normal" text-decoration="none" x="181" y="327.5">+findUserById(Long): User</text></g></g><g transform="translate(-94,-10) scale(1,1)"><g><path fill="none" stroke="none"></path><text fill="#000000" stroke="none" font-family="Arial" font-size="13px" font-style="normal" font-weight="normal" text-decoration="none" x="181" y="342.5">+updateUser(User): void</text></g></g><g transform="translate(-94,-10) scale(1,1)"><rect fill="#C0C0C0" stroke="none" x="383" y="463" width="138" height="102" opacity="0.2"></rect></g><g transform="translate(-94,-10) scale(1,1)"><rect fill="#ffffff" stroke="none" x="376" y="456" width="138" height="102"></rect></g><g transform="translate(-94,-10) scale(1,1)"><path fill="none" stroke="#000000" d="M 376 456 L 514 456 L 514 558 L 376 558 L 376 456 Z Z" stroke-miterlimit="10"></path></g><g transform="translate(-94,-10) scale(1,1)"><path fill="none" stroke="#000000" d="M 376 481 L 514 481" stroke-miterlimit="10"></path></g><g transform="translate(-94,-10) scale(1,1)"><path fill="none" stroke="#000000" d="M 376 549 L 514 549" stroke-miterlimit="10"></path></g><g transform="translate(-94,-10) scale(1,1)"><g><path fill="none" stroke="none"></path><text fill="#000000" stroke="none" font-family="Arial" font-size="13px" font-style="normal" font-weight="bold" text-decoration="none" x="431.5" y="475.5">Note</text></g></g><g transform="translate(-94,-10) scale(1,1)"><g><path fill="none" stroke="none"></path><text fill="#000000" stroke="none" font-family="Arial" font-size="13px" font-style="normal" font-weight="normal" text-decoration="none" x="381" y="498.5">+id: Long</text></g></g><g transform="translate(-94,-10) scale(1,1)"><g><path fill="none" stroke="none"></path><text fill="#000000" stroke="none" font-family="Arial" font-size="13px" font-style="normal" font-weight="normal" text-decoration="none" x="381" y="513.5">+text: String</text></g></g><g transform="translate(-94,-10) scale(1,1)"><g><path fill="none" stroke="none"></path><text fill="#000000" stroke="none" font-family="Arial" font-size="13px" font-style="normal" font-weight="normal" text-decoration="none" x="381" y="528.5">+user: User</text></g></g><g transform="translate(-94,-10) scale(1,1)"><g><path fill="none" stroke="none"></path><text fill="#000000" stroke="none" font-family="Arial" font-size="13px" font-style="normal" font-weight="normal" text-decoration="none" x="381" y="543.5">+reference: Reference</text></g></g><g transform="translate(-94,-10) scale(1,1)"><rect fill="#C0C0C0" stroke="none" x="295" y="615" width="124" height="44" opacity="0.2"></rect></g><g transform="translate(-94,-10) scale(1,1)"><rect fill="#ffffff" stroke="none" x="288" y="608" width="124" height="44"></rect></g><g transform="translate(-94,-10) scale(1,1)"><path fill="none" stroke="#000000" d="M 288 608 L 412 608 L 412 652 L 288 652 L 288 608 Z Z" stroke-miterlimit="10"></path></g><g transform="translate(-94,-10) scale(1,1)"><path fill="none" stroke="#000000" d="M 288 633 L 412 633" stroke-miterlimit="10"></path></g><g transform="translate(-94,-10) scale(1,1)"><path fill="none" stroke="#000000" d="M 288 643 L 412 643" stroke-miterlimit="10"></path></g><g transform="translate(-94,-10) scale(1,1)"><g><path fill="none" stroke="none"></path><text fill="#000000" stroke="none" font-family="Arial" font-size="13px" font-style="normal" font-weight="bold" text-decoration="none" x="312.5" y="627.5">NoteDaoImpl</text></g></g><g transform="translate(-94,-10) scale(1,1)"><path fill="#C0C0C0" stroke="none" d="M 185 466.5 C 185 460.1487248 190.1487248 455 196.5 455 C 202.8512752 455 208 460.1487248 208 466.5 C 208 472.8512752 202.8512752 478 196.5 478 C 190.1487248 478 185 472.8512752 185 466.5 Z" opacity="0.2"></path></g><g transform="translate(-94,-10) scale(1,1)"><path fill="#ffffff" stroke="none" d="M 178 459.5 C 178 453.1487248 183.1487248 448 189.5 448 C 195.8512752 448 201 453.1487248 201 459.5 C 201 465.8512752 195.8512752 471 189.5 471 C 183.1487248 471 178 465.8512752 178 459.5 Z"></path></g><g transform="translate(-94,-10) scale(1,1)"><path fill="none" stroke="#000000" d="M 178 459.5 C 178 453.1487248 183.1487248 448 189.5 448 C 195.8512752 448 201 453.1487248 201 459.5 C 201 465.8512752 195.8512752 471 189.5 471 C 183.1487248 471 178 465.8512752 178 459.5 Z" stroke-miterlimit="10"></path></g><g transform="translate(-94,-10) scale(1,1)"><path fill="none" stroke="#000000" d="M 104 496 L 275 496" stroke-miterlimit="10"></path></g><g transform="translate(-94,-10) scale(1,1)"><g><path fill="none" stroke="none"></path><text fill="#000000" stroke="none" font-family="Arial" font-size="13px" font-style="normal" font-weight="bold" text-decoration="none" x="164.5" y="490.5">NoteDao</text></g></g><g transform="translate(-94,-10) scale(1,1)"><g><path fill="none" stroke="none"></path><text fill="#000000" stroke="none" font-family="Arial" font-size="13px" font-style="normal" font-weight="normal" text-decoration="none" x="109" y="513.5">+insertNote(Note): long</text></g></g><g transform="translate(-94,-10) scale(1,1)"><g><path fill="none" stroke="none"></path><text fill="#000000" stroke="none" font-family="Arial" font-size="13px" font-style="normal" font-weight="normal" text-decoration="none" x="109" y="528.5">+deleteNode(Note): void</text></g></g><g transform="translate(-94,-10) scale(1,1)"><g><path fill="none" stroke="none"></path><text fill="#000000" stroke="none" font-family="Arial" font-size="13px" font-style="normal" font-weight="normal" text-decoration="none" x="109" y="543.5">+findNoteById(Long): Note</text></g></g><g transform="translate(-94,-10) scale(1,1)"><g><path fill="none" stroke="none"></path><text fill="#000000" stroke="none" font-family="Arial" font-size="13px" font-style="normal" font-weight="normal" text-decoration="none" x="109" y="558.5">+updateNote(Note): void</text></g></g><g transform="translate(-94,-10) scale(1,1)"><path fill="none" stroke="#000000" d="M 368 607 L 405 559" stroke-miterlimit="10" stroke-dasharray="3"></path></g><g transform="translate(-94,-10) scale(1,1)"><path fill="none" stroke="#000000" d="M 402.1295881053941 569.6188857963209 L 405 559 L 395.46162612930164 564.4789984397496" stroke-miterlimit="10"></path></g><g transform="translate(-94,-10) scale(1,1)"><rect fill="#C0C0C0" stroke="none" x="503" y="223" width="139" height="147" opacity="0.2"></rect></g><g transform="translate(-94,-10) scale(1,1)"><rect fill="#ffffff" stroke="none" x="496" y="216" width="139" height="147"></rect></g><g transform="translate(-94,-10) scale(1,1)"><path fill="none" stroke="#000000" d="M 496 216 L 635 216 L 635 363 L 496 363 L 496 216 Z Z" stroke-miterlimit="10"></path></g><g transform="translate(-94,-10) scale(1,1)"><path fill="none" stroke="#000000" d="M 496 241 L 635 241" stroke-miterlimit="10"></path></g><g transform="translate(-94,-10) scale(1,1)"><path fill="none" stroke="#000000" d="M 496 354 L 635 354" stroke-miterlimit="10"></path></g><g transform="translate(-94,-10) scale(1,1)"><g><path fill="none" stroke="none"></path><text fill="#000000" stroke="none" font-family="Arial" font-size="13px" font-style="normal" font-weight="bold" text-decoration="none" x="536" y="235.5">Reference</text></g></g><g transform="translate(-94,-10) scale(1,1)"><g><path fill="none" stroke="none"></path><text fill="#000000" stroke="none" font-family="Arial" font-size="13px" font-style="normal" font-weight="normal" text-decoration="none" x="501" y="258.5">+id: Long</text></g></g><g transform="translate(-94,-10) scale(1,1)"><g><path fill="none" stroke="none"></path><text fill="#000000" stroke="none" font-family="Arial" font-size="13px" font-style="normal" font-weight="normal" text-decoration="none" x="501" y="273.5">+title: String</text></g></g><g transform="translate(-94,-10) scale(1,1)"><g><path fill="none" stroke="none"></path><text fill="#000000" stroke="none" font-family="Arial" font-size="13px" font-style="normal" font-weight="normal" text-decoration="none" x="501" y="288.5">+authors: List&lt;String&gt;</text></g></g><g transform="translate(-94,-10) scale(1,1)"><g><path fill="none" stroke="none"></path><text fill="#000000" stroke="none" font-family="Arial" font-size="13px" font-style="normal" font-weight="normal" text-decoration="none" x="501" y="303.5">+venue: String</text></g></g><g transform="translate(-94,-10) scale(1,1)"><g><path fill="none" stroke="none"></path><text fill="#000000" stroke="none" font-family="Arial" font-size="13px" font-style="normal" font-weight="normal" text-decoration="none" x="501" y="318.5">+pages: Integer</text></g></g><g transform="translate(-94,-10) scale(1,1)"><g><path fill="none" stroke="none"></path><text fill="#000000" stroke="none" font-family="Arial" font-size="13px" font-style="normal" font-weight="normal" text-decoration="none" x="501" y="333.5">+notes: Set&lt;Note&gt;</text></g></g><g transform="translate(-94,-10) scale(1,1)"><g><path fill="none" stroke="none"></path><text fill="#000000" stroke="none" font-family="Arial" font-size="13px" font-style="normal" font-weight="normal" text-decoration="none" x="501" y="348.5">+tags: Set&lt;Tag&gt;</text></g></g><g transform="translate(-94,-10) scale(1,1)"><rect fill="#C0C0C0" stroke="none" x="575" y="471" width="181" height="87" opacity="0.2"></rect></g><g transform="translate(-94,-10) scale(1,1)"><rect fill="#ffffff" stroke="none" x="568" y="464" width="181" height="87"></rect></g><g transform="translate(-94,-10) scale(1,1)"><path fill="none" stroke="#000000" d="M 568 464 L 749 464 L 749 551 L 568 551 L 568 464 Z Z" stroke-miterlimit="10"></path></g><g transform="translate(-94,-10) scale(1,1)"><path fill="none" stroke="#000000" d="M 568 489 L 749 489" stroke-miterlimit="10"></path></g><g transform="translate(-94,-10) scale(1,1)"><path fill="none" stroke="#000000" d="M 568 542 L 749 542" stroke-miterlimit="10"></path></g><g transform="translate(-94,-10) scale(1,1)"><g><path fill="none" stroke="none"></path><text fill="#000000" stroke="none" font-family="Arial" font-size="13px" font-style="normal" font-weight="bold" text-decoration="none" x="647.5" y="483.5">Tag</text></g></g><g transform="translate(-94,-10) scale(1,1)"><g><path fill="none" stroke="none"></path><text fill="#000000" stroke="none" font-family="Arial" font-size="13px" font-style="normal" font-weight="normal" text-decoration="none" x="573" y="506.5">+id: Long</text></g></g><g transform="translate(-94,-10) scale(1,1)"><g><path fill="none" stroke="none"></path><text fill="#000000" stroke="none" font-family="Arial" font-size="13px" font-style="normal" font-weight="normal" text-decoration="none" x="573" y="521.5">+name: String</text></g></g><g transform="translate(-94,-10) scale(1,1)"><g><path fill="none" stroke="none"></path><text fill="#000000" stroke="none" font-family="Arial" font-size="13px" font-style="normal" font-weight="normal" text-decoration="none" x="573" y="536.5">+references: Set&lt;Reference&gt;</text></g></g><g transform="translate(-94,-10) scale(1,1)"><rect fill="#C0C0C0" stroke="none" x="759" y="255" width="128" height="44" opacity="0.2"></rect></g><g transform="translate(-94,-10) scale(1,1)"><rect fill="#ffffff" stroke="none" x="752" y="248" width="128" height="44"></rect></g><g transform="translate(-94,-10) scale(1,1)"><path fill="none" stroke="#000000" d="M 752 248 L 880 248 L 880 292 L 752 292 L 752 248 Z Z" stroke-miterlimit="10"></path></g><g transform="translate(-94,-10) scale(1,1)"><path fill="none" stroke="#000000" d="M 752 273 L 880 273" stroke-miterlimit="10"></path></g><g transform="translate(-94,-10) scale(1,1)"><path fill="none" stroke="#000000" d="M 752 283 L 880 283" stroke-miterlimit="10"></path></g><g transform="translate(-94,-10) scale(1,1)"><g><path fill="none" stroke="none"></path><text fill="#000000" stroke="none" font-family="Arial" font-size="13px" font-style="normal" font-weight="bold" text-decoration="none" x="762.5" y="267.5">ReferenceDaoIpml</text></g></g><g transform="translate(-94,-10) scale(1,1)"><rect fill="#C0C0C0" stroke="none" x="719" y="639" width="128" height="44" opacity="0.2"></rect></g><g transform="translate(-94,-10) scale(1,1)"><rect fill="#ffffff" stroke="none" x="712" y="632" width="128" height="44"></rect></g><g transform="translate(-94,-10) scale(1,1)"><path fill="none" stroke="#000000" d="M 712 632 L 840 632 L 840 676 L 712 676 L 712 632 Z Z" stroke-miterlimit="10"></path></g><g transform="translate(-94,-10) scale(1,1)"><path fill="none" stroke="#000000" d="M 712 657 L 840 657" stroke-miterlimit="10"></path></g><g transform="translate(-94,-10) scale(1,1)"><path fill="none" stroke="#000000" d="M 712 667 L 840 667" stroke-miterlimit="10"></path></g><g transform="translate(-94,-10) scale(1,1)"><g><path fill="none" stroke="none"></path><text fill="#000000" stroke="none" font-family="Arial" font-size="13px" font-style="normal" font-weight="bold" text-decoration="none" x="741" y="651.5">TagDaoImpl</text></g></g><g transform="translate(-94,-10) scale(1,1)"><path fill="#C0C0C0" stroke="none" d="M 952 634.5 C 952 628.1487248 957.1487248 623 963.5 623 C 969.8512752 623 975 628.1487248 975 634.5 C 975 640.8512752 969.8512752 646 963.5 646 C 957.1487248 646 952 640.8512752 952 634.5 Z" opacity="0.2"></path></g><g transform="translate(-94,-10) scale(1,1)"><path fill="#ffffff" stroke="none" d="M 945 627.5 C 945 621.1487248 950.1487248 616 956.5 616 C 962.8512752 616 968 621.1487248 968 627.5 C 968 633.8512752 962.8512752 639 956.5 639 C 950.1487248 639 945 633.8512752 945 627.5 Z"></path></g><g transform="translate(-94,-10) scale(1,1)"><path fill="none" stroke="#000000" d="M 945 627.5 C 945 621.1487248 950.1487248 616 956.5 616 C 962.8512752 616 968 621.1487248 968 627.5 C 968 633.8512752 962.8512752 639 956.5 639 C 950.1487248 639 945 633.8512752 945 627.5 Z" stroke-miterlimit="10"></path></g><g transform="translate(-94,-10) scale(1,1)"><path fill="none" stroke="#000000" d="M 880 664 L 1033 664" stroke-miterlimit="10"></path></g><g transform="translate(-94,-10) scale(1,1)"><g><path fill="none" stroke="none"></path><text fill="#000000" stroke="none" font-family="Arial" font-size="13px" font-style="normal" font-weight="bold" text-decoration="none" x="934" y="658.5">TagDao</text></g></g><g transform="translate(-94,-10) scale(1,1)"><g><path fill="none" stroke="none"></path><text fill="#000000" stroke="none" font-family="Arial" font-size="13px" font-style="normal" font-weight="normal" text-decoration="none" x="885" y="681.5">+insertTag(Tag): Long</text></g></g><g transform="translate(-94,-10) scale(1,1)"><g><path fill="none" stroke="none"></path><text fill="#000000" stroke="none" font-family="Arial" font-size="13px" font-style="normal" font-weight="normal" text-decoration="none" x="885" y="696.5">+deleteTag(Tag): void</text></g></g><g transform="translate(-94,-10) scale(1,1)"><g><path fill="none" stroke="none"></path><text fill="#000000" stroke="none" font-family="Arial" font-size="13px" font-style="normal" font-weight="normal" text-decoration="none" x="885" y="711.5">+findTagById(Long): Tag</text></g></g><g transform="translate(-94,-10) scale(1,1)"><g><path fill="none" stroke="none"></path><text fill="#000000" stroke="none" font-family="Arial" font-size="13px" font-style="normal" font-weight="normal" text-decoration="none" x="885" y="726.5">+updateTag(Tag): void</text></g></g><g transform="translate(-94,-10) scale(1,1)"><path fill="#C0C0C0" stroke="none" d="M 885 426.5 C 885 420.1487248 890.1487248 415 896.5 415 C 902.8512752 415 908 420.1487248 908 426.5 C 908 432.8512752 902.8512752 438 896.5 438 C 890.1487248 438 885 432.8512752 885 426.5 Z" opacity="0.2"></path></g><g transform="translate(-94,-10) scale(1,1)"><path fill="#ffffff" stroke="none" d="M 878 419.5 C 878 413.1487248 883.1487248 408 889.5 408 C 895.8512752 408 901 413.1487248 901 419.5 C 901 425.8512752 895.8512752 431 889.5 431 C 883.1487248 431 878 425.8512752 878 419.5 Z"></path></g><g transform="translate(-94,-10) scale(1,1)"><path fill="none" stroke="#000000" d="M 878 419.5 C 878 413.1487248 883.1487248 408 889.5 408 C 895.8512752 408 901 413.1487248 901 419.5 C 901 425.8512752 895.8512752 431 889.5 431 C 883.1487248 431 878 425.8512752 878 419.5 Z" stroke-miterlimit="10"></path></g><g transform="translate(-94,-10) scale(1,1)"><path fill="none" stroke="#000000" d="M 776 456 L 1003 456" stroke-miterlimit="10"></path></g><g transform="translate(-94,-10) scale(1,1)"><g><path fill="none" stroke="none"></path><text fill="#000000" stroke="none" font-family="Arial" font-size="13px" font-style="normal" font-weight="bold" text-decoration="none" x="848.5" y="450.5">ReferenceDao</text></g></g><g transform="translate(-94,-10) scale(1,1)"><g><path fill="none" stroke="none"></path><text fill="#000000" stroke="none" font-family="Arial" font-size="13px" font-style="normal" font-weight="normal" text-decoration="none" x="781" y="473.5">+insertReference(Reference): Long</text></g></g><g transform="translate(-94,-10) scale(1,1)"><g><path fill="none" stroke="none"></path><text fill="#000000" stroke="none" font-family="Arial" font-size="13px" font-style="normal" font-weight="normal" text-decoration="none" x="781" y="488.5">+deleteReference(Reference): void</text></g></g><g transform="translate(-94,-10) scale(1,1)"><g><path fill="none" stroke="none"></path><text fill="#000000" stroke="none" font-family="Arial" font-size="13px" font-style="normal" font-weight="normal" text-decoration="none" x="781" y="503.5">+findReferenceById(Long): Reference</text></g></g><g transform="translate(-94,-10) scale(1,1)"><g><path fill="none" stroke="none"></path><text fill="#000000" stroke="none" font-family="Arial" font-size="13px" font-style="normal" font-weight="normal" text-decoration="none" x="781" y="518.5">+updateReference(Reference): void</text></g></g><g transform="translate(-94,-10) scale(1,1)"><path fill="none" stroke="#000000" d="M 751 281 Q 712 288 636 289" stroke-miterlimit="10" stroke-dasharray="3"></path></g><g transform="translate(-94,-10) scale(1,1)"><path fill="none" stroke="#000000" d="M 646.106411641457 284.65713876189653 L 636 289 L 646.2171788363521 293.0754455739218" stroke-miterlimit="10"></path></g><g transform="translate(-94,-10) scale(1,1)"><path fill="none" stroke="#000000" d="M 758 631 L 694 552" stroke-miterlimit="10" stroke-dasharray="3"></path></g><g transform="translate(-94,-10) scale(1,1)"><path fill="none" stroke="#000000" d="M 703.6680737349374 557.2467466353745 L 694 552 L 697.1263503739448 562.5463706240268" stroke-miterlimit="10"></path></g><g transform="translate(-94,-10) scale(1,1)"><path fill="none" stroke="#000000" d="M 770 631 Q 733 492 945 625.1666666666666" stroke-miterlimit="10"></path></g><g transform="translate(-94,-10) scale(1,1)"><path fill="none" stroke="#000000" d="M 854 293 Q 1068 421 901 420.8782608695652" stroke-miterlimit="10"></path></g><g transform="translate(-94,-10) scale(1,1)"><path fill="none" stroke="#000000" d="M 562 215 Q 562 201 524 138" stroke-miterlimit="10"></path></g><g transform="translate(-94,-10) scale(1,1)"><path fill="#FFFFFF" stroke="none" d="M 532.853525622964 144.52802298123413 L 524 138 L 525.6443786876343 148.87639732317894 L 535.3628497452075 156.83840878810724"></path></g><g transform="translate(-94,-10) scale(1,1)"><path fill="none" stroke="#000000" d="M 532.853525622964 144.52802298123413 L 524 138 L 525.6443786876343 148.87639732317894 L 535.3628497452075 156.83840878810724 L 532.853525622964 144.52802298123413" stroke-miterlimit="10"></path></g><g transform="translate(-94,-10) scale(1,1)"><g><path fill="none" stroke="none"></path><text fill="#000000" stroke="none" font-family="Arial" font-size="13px" font-style="normal" font-weight="normal" text-decoration="none" x="563.5" y="199.5">0..*</text></g></g><g transform="translate(-94,-10) scale(1,1)"><g><path fill="none" stroke="none"></path><text fill="#000000" stroke="none" font-family="Arial" font-size="13px" font-style="normal" font-weight="normal" text-decoration="none" x="542.5" y="155.5">1..*</text></g></g><g transform="translate(-94,-10) scale(1,1)"><path fill="none" stroke="#000000" d="M 457 138 Q 392 264 392 312 Q 392 360 426 455" stroke-miterlimit="10"></path></g><g transform="translate(-94,-10) scale(1,1)"><path fill="#FFFFFF" stroke="none" d="M 456.08184180447483 148.961614184416 L 457 138 L 448.59973239119097 145.10179583629335 L 446.9138085903853 157.5516941170993"></path></g><g transform="translate(-94,-10) scale(1,1)"><path fill="none" stroke="#000000" d="M 456.08184180447483 148.961614184416 L 457 138 L 448.59973239119097 145.10179583629335 L 446.9138085903853 157.5516941170993 L 456.08184180447483 148.961614184416" stroke-miterlimit="10"></path></g><g transform="translate(-94,-10) scale(1,1)"><g><path fill="none" stroke="none"></path><text fill="#000000" stroke="none" font-family="Arial" font-size="13px" font-style="normal" font-weight="normal" text-decoration="none" x="424.5" y="157.5">1..*</text></g></g><g transform="translate(-94,-10) scale(1,1)"><g><path fill="none" stroke="none"></path><text fill="#000000" stroke="none" font-family="Arial" font-size="13px" font-style="normal" font-weight="normal" text-decoration="none" x="395.5" y="444.5">0..*</text></g></g><g transform="translate(-94,-10) scale(1,1)"><path fill="none" stroke="#000000" d="M 643 463 L 616 384 L 605 364" stroke-miterlimit="10"></path></g><g transform="translate(-94,-10) scale(1,1)"><path fill="#FFFFFF" stroke="none" d="M 613.5860299874051 370.87605185083555 L 605 364 L 606.2091371360491 374.9333429190814 L 615.6022124949874 383.27674999088623"></path></g><g transform="translate(-94,-10) scale(1,1)"><path fill="none" stroke="#000000" d="M 613.5860299874051 370.87605185083555 L 605 364 L 606.2091371360491 374.9333429190814 L 615.6022124949874 383.27674999088623 L 613.5860299874051 370.87605185083555" stroke-miterlimit="10"></path></g><g transform="translate(-94,-10) scale(1,1)"><g><path fill="none" stroke="none"></path><text fill="#000000" stroke="none" font-family="Arial" font-size="13px" font-style="normal" font-weight="normal" text-decoration="none" x="636.5" y="444.5">1..*</text></g></g><g transform="translate(-94,-10) scale(1,1)"><g><path fill="none" stroke="none"></path><text fill="#000000" stroke="none" font-family="Arial" font-size="13px" font-style="normal" font-weight="normal" text-decoration="none" x="615.5" y="382.5">1..*</text></g></g><g transform="translate(-94,-10) scale(1,1)"><path fill="none" stroke="#000000" d="M 474 455 L 524 364" stroke-miterlimit="10"></path></g><g transform="translate(-94,-10) scale(1,1)"><path fill="#FFFFFF" stroke="none" d="M 522.7954761960344 374.9338521302275 L 524 364 L 515.4168720643405 370.87967403589016 L 513.4059220978515 383.28122178191023"></path></g><g transform="translate(-94,-10) scale(1,1)"><path fill="none" stroke="#000000" d="M 522.7954761960344 374.9338521302275 L 524 364 L 515.4168720643405 370.87967403589016 L 513.4059220978515 383.28122178191023 L 522.7954761960344 374.9338521302275" stroke-miterlimit="10"></path></g><g transform="translate(-94,-10) scale(1,1)"><g><path fill="none" stroke="none"></path><text fill="#000000" stroke="none" font-family="Arial" font-size="13px" font-style="normal" font-weight="normal" text-decoration="none" x="484.5" y="448.5">0..*</text></g></g><g transform="translate(-94,-10) scale(1,1)"><g><path fill="none" stroke="none"></path><text fill="#000000" stroke="none" font-family="Arial" font-size="13px" font-style="normal" font-weight="normal" text-decoration="none" x="513.5" y="394.5">1..*</text></g></g><g transform="translate(-94,-10) scale(1,1)"><path fill="none" stroke="#000000" d="M 346 607 Q 312 424 201 457.48275862068965" stroke-miterlimit="10"></path></g><g transform="translate(-94,-10) scale(1,1)"><path fill="none" stroke="#000000" d="M 232 125 L 248.75 232" stroke-miterlimit="10"></path></g></g></svg>