<svg version="1.1" xmlns="http://www.w3.org/2000/svg" xmlns:xlink="http://www.w3.org/1999/xlink" width="449" height="328"><defs/><g><g transform="translate(-10,-10) scale(1,1)"><path fill="#ffffff" stroke="none" d="M 35.82072727272727 151.18 C 35.82072727272727 146.386167936 39.706569597672726 142.5 44.5 142.5 C 49.293430402327274 142.5 53.17927272727273 146.386167936 53.17927272727273 151.18 C 53.17927272727273 155.97383206400002 49.293430402327274 159.86 44.5 159.86 C 39.706569597672726 159.86 35.82072727272727 155.97383206400002 35.82072727272727 151.18 Z"/></g><g transform="translate(-10,-10) scale(1,1)"><path fill="none" stroke="#000000" d="M 35.82072727272727 151.18 C 35.82072727272727 146.386167936 39.706569597672726 142.5 44.5 142.5 C 49.293430402327274 142.5 53.17927272727273 146.386167936 53.17927272727273 151.18 C 53.17927272727273 155.97383206400002 49.293430402327274 159.86 44.5 159.86 C 39.706569597672726 159.86 35.82072727272727 155.97383206400002 35.82072727272727 151.18 Z" stroke-miterlimit="10"/></g><g transform="translate(-10,-10) scale(1,1)"><path fill="none" stroke="#000000" d="M 44.5 159.86 L 44.5 177.14" stroke-miterlimit="10"/></g><g transform="translate(-10,-10) scale(1,1)"><path fill="none" stroke="#000000" d="M 35.31018181818182 166.34 L 53.68981818181818 166.34" stroke-miterlimit="10"/></g><g transform="translate(-10,-10) scale(1,1)"><path fill="none" stroke="#000000" d="M 44.5 177.14 L 31.736363636363635 194.5" stroke-miterlimit="10"/></g><g transform="translate(-10,-10) scale(1,1)"><path fill="none" stroke="#000000" d="M 44.5 177.14 L 57.263636363636365 194.5" stroke-miterlimit="10"/></g><g transform="translate(-10,-10) scale(1,1)"><g><path fill="none" stroke="none"/><text fill="#000000" stroke="none" font-family="Arial" font-size="13px" font-style="normal" font-weight="bold" text-decoration="none" x="25.5" y="215">User 1</text></g></g><g transform="translate(-10,-10) scale(1,1)"><path fill="#C0C0C0" stroke="none" d="M 107 51 C 107 37.7451648 185.1263024 27 281.5 27 C 377.8736976 27 456 37.7451648 456 51 C 456 64.2548352 377.8736976 75 281.5 75 C 185.1263024 75 107 64.2548352 107 51 Z" opacity="0.2"/></g><g transform="translate(-10,-10) scale(1,1)"><path fill="#ffffff" stroke="none" d="M 100 44 C 100 30.745164799999998 178.1263024 20 274.5 20 C 370.8736976 20 449 30.745164799999998 449 44 C 449 57.2548352 370.8736976 68 274.5 68 C 178.1263024 68 100 57.2548352 100 44 Z"/></g><g transform="translate(-10,-10) scale(1,1)"><path fill="none" stroke="#000000" d="M 100 44 C 100 30.745164799999998 178.1263024 20 274.5 20 C 370.8736976 20 449 30.745164799999998 449 44 C 449 57.2548352 370.8736976 68 274.5 68 C 178.1263024 68 100 57.2548352 100 44 Z" stroke-miterlimit="10"/></g><g transform="translate(-10,-10) scale(1,1)"><g><path fill="none" stroke="none"/><text fill="#000000" stroke="none" font-family="Arial" font-size="13px" font-style="normal" font-weight="bold" text-decoration="none" x="161.5" y="51">Modify reference (Insert/Delete/Modify)</text></g></g><g transform="translate(-10,-10) scale(1,1)"><path fill="none" stroke="#000000" d="M 56 141 Q 85 45 99 45" stroke-miterlimit="10"/></g><g transform="translate(-10,-10) scale(1,1)"><path fill="#C0C0C0" stroke="none" d="M 131 123 C 131 113.6111584 198.3811376 106 281.5 106 C 364.6188624 106 432 113.6111584 432 123 C 432 132.3888416 364.6188624 140 281.5 140 C 198.3811376 140 131 132.3888416 131 123 Z" opacity="0.2"/></g><g transform="translate(-10,-10) scale(1,1)"><path fill="#ffffff" stroke="none" d="M 124 116 C 124 106.6111584 191.3811376 99 274.5 99 C 357.6188624 99 425 106.6111584 425 116 C 425 125.3888416 357.6188624 133 274.5 133 C 191.3811376 133 124 125.3888416 124 116 Z"/></g><g transform="translate(-10,-10) scale(1,1)"><path fill="none" stroke="#000000" d="M 124 116 C 124 106.6111584 191.3811376 99 274.5 99 C 357.6188624 99 425 106.6111584 425 116 C 425 125.3888416 357.6188624 133 274.5 133 C 191.3811376 133 124 125.3888416 124 116 Z" stroke-miterlimit="10"/></g><g transform="translate(-10,-10) scale(1,1)"><g><path fill="none" stroke="none"/><text fill="#000000" stroke="none" font-family="Arial" font-size="13px" font-style="normal" font-weight="bold" text-decoration="none" x="199" y="123">Group references together</text></g></g><g transform="translate(-10,-10) scale(1,1)"><path fill="none" stroke="#000000" d="M 70 141 Q 85 117 123 117" stroke-miterlimit="10"/></g><g transform="translate(-10,-10) scale(1,1)"><path fill="#C0C0C0" stroke="none" d="M 171 188 C 171 178.6111584 220.4725296 171 281.5 171 C 342.5274704 171 392 178.6111584 392 188 C 392 197.3888416 342.5274704 205 281.5 205 C 220.4725296 205 171 197.3888416 171 188 Z" opacity="0.2"/></g><g transform="translate(-10,-10) scale(1,1)"><path fill="#ffffff" stroke="none" d="M 164 181 C 164 171.6111584 213.4725296 164 274.5 164 C 335.5274704 164 385 171.6111584 385 181 C 385 190.3888416 335.5274704 198 274.5 198 C 213.4725296 198 164 190.3888416 164 181 Z"/></g><g transform="translate(-10,-10) scale(1,1)"><path fill="none" stroke="#000000" d="M 164 181 C 164 171.6111584 213.4725296 164 274.5 164 C 335.5274704 164 385 171.6111584 385 181 C 385 190.3888416 335.5274704 198 274.5 198 C 213.4725296 198 164 190.3888416 164 181 Z" stroke-miterlimit="10"/></g><g transform="translate(-10,-10) scale(1,1)"><g><path fill="none" stroke="none"/><text fill="#000000" stroke="none" font-family="Arial" font-size="13px" font-style="normal" font-weight="bold" text-decoration="none" x="205" y="188">Add notes to references</text></g></g><g transform="translate(-10,-10) scale(1,1)"><path fill="none" stroke="#000000" d="M 70 182 Q 85 182 163 182" stroke-miterlimit="10"/></g><g transform="translate(-10,-10) scale(1,1)"><path fill="#C0C0C0" stroke="none" d="M 166.5 253 C 166.5 243.6111584 217.987248 236 281.5 236 C 345.012752 236 396.5 243.6111584 396.5 253 C 396.5 262.3888416 345.012752 270 281.5 270 C 217.987248 270 166.5 262.3888416 166.5 253 Z" opacity="0.2"/></g><g transform="translate(-10,-10) scale(1,1)"><path fill="#ffffff" stroke="none" d="M 159.5 246 C 159.5 236.6111584 210.987248 229 274.5 229 C 338.012752 229 389.5 236.6111584 389.5 246 C 389.5 255.3888416 338.012752 263 274.5 263 C 210.987248 263 159.5 255.3888416 159.5 246 Z"/></g><g transform="translate(-10,-10) scale(1,1)"><path fill="none" stroke="#000000" d="M 159.5 246 C 159.5 236.6111584 210.987248 229 274.5 229 C 338.012752 229 389.5 236.6111584 389.5 246 C 389.5 255.3888416 338.012752 263 274.5 263 C 210.987248 263 159.5 255.3888416 159.5 246 Z" stroke-miterlimit="10"/></g><g transform="translate(-10,-10) scale(1,1)"><g><path fill="none" stroke="none"/><text fill="#000000" stroke="none" font-family="Arial" font-size="13px" font-style="normal" font-weight="bold" text-decoration="none" x="202.5" y="253">Import/Export references</text></g></g><g transform="translate(-10,-10) scale(1,1)"><path fill="#C0C0C0" stroke="none" d="M 177 318 C 177 308.6111584 223.7862384 301 281.5 301 C 339.2137616 301 386 308.6111584 386 318 C 386 327.3888416 339.2137616 335 281.5 335 C 223.7862384 335 177 327.3888416 177 318 Z" opacity="0.2"/></g><g transform="translate(-10,-10) scale(1,1)"><path fill="#ffffff" stroke="none" d="M 170 311 C 170 301.6111584 216.7862384 294 274.5 294 C 332.2137616 294 379 301.6111584 379 311 C 379 320.3888416 332.2137616 328 274.5 328 C 216.7862384 328 170 320.3888416 170 311 Z"/></g><g transform="translate(-10,-10) scale(1,1)"><path fill="none" stroke="#000000" d="M 170 311 C 170 301.6111584 216.7862384 294 274.5 294 C 332.2137616 294 379 301.6111584 379 311 C 379 320.3888416 332.2137616 328 274.5 328 C 216.7862384 328 170 320.3888416 170 311 Z" stroke-miterlimit="10"/></g><g transform="translate(-10,-10) scale(1,1)"><g><path fill="none" stroke="none"/><text fill="#000000" stroke="none" font-family="Arial" font-size="13px" font-style="normal" font-weight="bold" text-decoration="none" x="209.5" y="318">Find stored references</text></g></g><g transform="translate(-10,-10) scale(1,1)"><path fill="none" stroke="#000000" d="M 69 222 Q 85 247 159 247" stroke-miterlimit="10"/></g><g transform="translate(-10,-10) scale(1,1)"><path fill="none" stroke="#000000" d="M 57 222 Q 85 312 169 312" stroke-miterlimit="10"/></g></g></svg>