<svg version="1.1" xmlns="http://www.w3.org/2000/svg" xmlns:xlink="http://www.w3.org/1999/xlink" width="917" height="816"><defs/><g><g transform="translate(-94,-14) scale(1,1)"><rect fill="#C0C0C0" stroke="none" x="463" y="31" width="185" height="132" opacity="0.2"/></g><g transform="translate(-94,-14) scale(1,1)"><rect fill="#ffffff" stroke="none" x="456" y="24" width="185" height="132"/></g><g transform="translate(-94,-14) scale(1,1)"><path fill="none" stroke="#000000" d="M 456 24 L 641 24 L 641 156 L 456 156 L 456 24 Z Z" stroke-miterlimit="10"/></g><g transform="translate(-94,-14) scale(1,1)"><path fill="none" stroke="#000000" d="M 456 49 L 641 49" stroke-miterlimit="10"/></g><g transform="translate(-94,-14) scale(1,1)"><path fill="none" stroke="#000000" d="M 456 147 L 641 147" stroke-miterlimit="10"/></g><g transform="translate(-94,-14) scale(1,1)"><g><path fill="none" stroke="none"/><text fill="#000000" stroke="none" font-family="Arial" font-size="13px" font-style="normal" font-weight="bold" text-decoration="none" x="535" y="43.5">User</text></g></g><g transform="translate(-94,-14) scale(1,1)"><g><path fill="none" stroke="none"/><text fill="#000000" stroke="none" font-family="Arial" font-size="13px" font-style="normal" font-weight="normal" text-decoration="none" x="461" y="66.5">+id: Long</text></g></g><g transform="translate(-94,-14) scale(1,1)"><g><path fill="none" stroke="none"/><text fill="#000000" stroke="none" font-family="Arial" font-size="13px" font-style="normal" font-weight="normal" text-decoration="none" x="461" y="81.5">+username: String</text></g></g><g transform="translate(-94,-14) scale(1,1)"><g><path fill="none" stroke="none"/><text fill="#000000" stroke="none" font-family="Arial" font-size="13px" font-style="normal" font-weight="normal" text-decoration="none" x="461" y="96.5">+email: String</text></g></g><g transform="translate(-94,-14) scale(1,1)"><g><path fill="none" stroke="none"/><text fill="#000000" stroke="none" font-family="Arial" font-size="13px" font-style="normal" font-weight="normal" text-decoration="none" x="461" y="111.5">+passwordHash: String</text></g></g><g transform="translate(-94,-14) scale(1,1)"><g><path fill="none" stroke="none"/><text fill="#000000" stroke="none" font-family="Arial" font-size="13px" font-style="normal" font-weight="normal" text-decoration="none" x="461" y="126.5">+references: Set&lt;Reference&gt;</text></g></g><g transform="translate(-94,-14) scale(1,1)"><g><path fill="none" stroke="none"/><text fill="#000000" stroke="none" font-family="Arial" font-size="13px" font-style="normal" font-weight="normal" text-decoration="none" x="461" y="141.5">+tags: Set&lt;Tag&gt;</text></g></g><g transform="translate(-94,-14) scale(1,1)"><rect fill="#C0C0C0" stroke="none" x="711" y="55" width="121" height="44" opacity="0.2"/></g><g transform="translate(-94,-14) scale(1,1)"><rect fill="#ffffff" stroke="none" x="704" y="48" width="121" height="44"/></g><g transform="translate(-94,-14) scale(1,1)"><path fill="none" stroke="#000000" d="M 704 48 L 825 48 L 825 92 L 704 92 L 704 48 Z Z" stroke-miterlimit="10"/></g><g transform="translate(-94,-14) scale(1,1)"><path fill="none" stroke="#000000" d="M 704 73 L 825 73" stroke-miterlimit="10"/></g><g transform="translate(-94,-14) scale(1,1)"><path fill="none" stroke="#000000" d="M 704 83 L 825 83" stroke-miterlimit="10"/></g><g transform="translate(-94,-14) scale(1,1)"><g><path fill="none" stroke="none"/><text fill="#000000" stroke="none" font-family="Arial" font-size="13px" font-style="normal" font-weight="bold" text-decoration="none" x="727" y="67.5">UserDaoImpl</text></g></g><g transform="translate(-94,-14) scale(1,1)"><path fill="none" stroke="#000000" d="M 703 76 L 642 81" stroke-miterlimit="10" stroke-dasharray="3"/></g><g transform="translate(-94,-14) scale(1,1)"><path fill="none" stroke="#000000" d="M 651.7848171906983 75.97433063715737 L 642 81 L 652.4725954746809 84.36522570174597" stroke-miterlimit="10"/></g><g transform="translate(-94,-14) scale(1,1)"><path fill="#C0C0C0" stroke="none" d="M 877 202.5 C 877 196.1487248 882.1487248 191 888.5 191 C 894.8512752 191 900 196.1487248 900 202.5 C 900 208.8512752 894.8512752 214 888.5 214 C 882.1487248 214 877 208.8512752 877 202.5 Z" opacity="0.2"/></g><g transform="translate(-94,-14) scale(1,1)"><path fill="#ffffff" stroke="none" d="M 870 195.5 C 870 189.1487248 875.1487248 184 881.5 184 C 887.8512752 184 893 189.1487248 893 195.5 C 893 201.8512752 887.8512752 207 881.5 207 C 875.1487248 207 870 201.8512752 870 195.5 Z"/></g><g transform="translate(-94,-14) scale(1,1)"><path fill="none" stroke="#000000" d="M 870 195.5 C 870 189.1487248 875.1487248 184 881.5 184 C 887.8512752 184 893 189.1487248 893 195.5 C 893 201.8512752 887.8512752 207 881.5 207 C 875.1487248 207 870 201.8512752 870 195.5 Z" stroke-miterlimit="10"/></g><g transform="translate(-94,-14) scale(1,1)"><path fill="none" stroke="#000000" d="M 800 232 L 963 232" stroke-miterlimit="10"/></g><g transform="translate(-94,-14) scale(1,1)"><g><path fill="none" stroke="none"/><text fill="#000000" stroke="none" font-family="Arial" font-size="13px" font-style="normal" font-weight="bold" text-decoration="none" x="856.5" y="226.5">UserDao</text></g></g><g transform="translate(-94,-14) scale(1,1)"><g><path fill="none" stroke="none"/><text fill="#000000" stroke="none" font-family="Arial" font-size="13px" font-style="normal" font-weight="normal" text-decoration="none" x="805" y="249.5">+insertUser(User): Long</text></g></g><g transform="translate(-94,-14) scale(1,1)"><g><path fill="none" stroke="none"/><text fill="#000000" stroke="none" font-family="Arial" font-size="13px" font-style="normal" font-weight="normal" text-decoration="none" x="805" y="264.5">+deleteUser(User): void</text></g></g><g transform="translate(-94,-14) scale(1,1)"><g><path fill="none" stroke="none"/><text fill="#000000" stroke="none" font-family="Arial" font-size="13px" font-style="normal" font-weight="normal" text-decoration="none" x="805" y="279.5">+findUserById(Long): User</text></g></g><g transform="translate(-94,-14) scale(1,1)"><g><path fill="none" stroke="none"/><text fill="#000000" stroke="none" font-family="Arial" font-size="13px" font-style="normal" font-weight="normal" text-decoration="none" x="805" y="294.5">+updateUser(User): void</text></g></g><g transform="translate(-94,-14) scale(1,1)"><rect fill="#C0C0C0" stroke="none" x="383" y="463" width="138" height="102" opacity="0.2"/></g><g transform="translate(-94,-14) scale(1,1)"><rect fill="#ffffff" stroke="none" x="376" y="456" width="138" height="102"/></g><g transform="translate(-94,-14) scale(1,1)"><path fill="none" stroke="#000000" d="M 376 456 L 514 456 L 514 558 L 376 558 L 376 456 Z Z" stroke-miterlimit="10"/></g><g transform="translate(-94,-14) scale(1,1)"><path fill="none" stroke="#000000" d="M 376 481 L 514 481" stroke-miterlimit="10"/></g><g transform="translate(-94,-14) scale(1,1)"><path fill="none" stroke="#000000" d="M 376 534 L 514 534" stroke-miterlimit="10"/></g><g transform="translate(-94,-14) scale(1,1)"><g><path fill="none" stroke="none"/><text fill="#000000" stroke="none" font-family="Arial" font-size="13px" font-style="normal" font-weight="bold" text-decoration="none" x="431.5" y="475.5">Note</text></g></g><g transform="translate(-94,-14) scale(1,1)"><g><path fill="none" stroke="none"/><text fill="#000000" stroke="none" font-family="Arial" font-size="13px" font-style="normal" font-weight="normal" text-decoration="none" x="381" y="498.5">+id: Long</text></g></g><g transform="translate(-94,-14) scale(1,1)"><g><path fill="none" stroke="none"/><text fill="#000000" stroke="none" font-family="Arial" font-size="13px" font-style="normal" font-weight="normal" text-decoration="none" x="381" y="513.5">+text: String</text></g></g><g transform="translate(-94,-14) scale(1,1)"><g><path fill="none" stroke="none"/><text fill="#000000" stroke="none" font-family="Arial" font-size="13px" font-style="normal" font-weight="normal" text-decoration="none" x="381" y="528.5">+creator: User</text></g></g><g transform="translate(-94,-14) scale(1,1)"><rect fill="#C0C0C0" stroke="none" x="295" y="615" width="124" height="44" opacity="0.2"/></g><g transform="translate(-94,-14) scale(1,1)"><rect fill="#ffffff" stroke="none" x="288" y="608" width="124" height="44"/></g><g transform="translate(-94,-14) scale(1,1)"><path fill="none" stroke="#000000" d="M 288 608 L 412 608 L 412 652 L 288 652 L 288 608 Z Z" stroke-miterlimit="10"/></g><g transform="translate(-94,-14) scale(1,1)"><path fill="none" stroke="#000000" d="M 288 633 L 412 633" stroke-miterlimit="10"/></g><g transform="translate(-94,-14) scale(1,1)"><path fill="none" stroke="#000000" d="M 288 643 L 412 643" stroke-miterlimit="10"/></g><g transform="translate(-94,-14) scale(1,1)"><g><path fill="none" stroke="none"/><text fill="#000000" stroke="none" font-family="Arial" font-size="13px" font-style="normal" font-weight="bold" text-decoration="none" x="312.5" y="627.5">NoteDaoImpl</text></g></g><g transform="translate(-94,-14) scale(1,1)"><path fill="#C0C0C0" stroke="none" d="M 193 714.5 C 193 708.1487248 198.1487248 703 204.5 703 C 210.8512752 703 216 708.1487248 216 714.5 C 216 720.8512752 210.8512752 726 204.5 726 C 198.1487248 726 193 720.8512752 193 714.5 Z" opacity="0.2"/></g><g transform="translate(-94,-14) scale(1,1)"><path fill="#ffffff" stroke="none" d="M 186 707.5 C 186 701.1487248 191.1487248 696 197.5 696 C 203.8512752 696 209 701.1487248 209 707.5 C 209 713.8512752 203.8512752 719 197.5 719 C 191.1487248 719 186 713.8512752 186 707.5 Z"/></g><g transform="translate(-94,-14) scale(1,1)"><path fill="none" stroke="#000000" d="M 186 707.5 C 186 701.1487248 191.1487248 696 197.5 696 C 203.8512752 696 209 701.1487248 209 707.5 C 209 713.8512752 203.8512752 719 197.5 719 C 191.1487248 719 186 713.8512752 186 707.5 Z" stroke-miterlimit="10"/></g><g transform="translate(-94,-14) scale(1,1)"><path fill="none" stroke="#000000" d="M 112 744 L 283 744" stroke-miterlimit="10"/></g><g transform="translate(-94,-14) scale(1,1)"><g><path fill="none" stroke="none"/><text fill="#000000" stroke="none" font-family="Arial" font-size="13px" font-style="normal" font-weight="bold" text-decoration="none" x="172.5" y="738.5">NoteDao</text></g></g><g transform="translate(-94,-14) scale(1,1)"><g><path fill="none" stroke="none"/><text fill="#000000" stroke="none" font-family="Arial" font-size="13px" font-style="normal" font-weight="normal" text-decoration="none" x="117" y="761.5">+insertNote(Note): long</text></g></g><g transform="translate(-94,-14) scale(1,1)"><g><path fill="none" stroke="none"/><text fill="#000000" stroke="none" font-family="Arial" font-size="13px" font-style="normal" font-weight="normal" text-decoration="none" x="117" y="776.5">+deleteNode(Note): void</text></g></g><g transform="translate(-94,-14) scale(1,1)"><g><path fill="none" stroke="none"/><text fill="#000000" stroke="none" font-family="Arial" font-size="13px" font-style="normal" font-weight="normal" text-decoration="none" x="117" y="791.5">+findNoteById(Long): Note</text></g></g><g transform="translate(-94,-14) scale(1,1)"><g><path fill="none" stroke="none"/><text fill="#000000" stroke="none" font-family="Arial" font-size="13px" font-style="normal" font-weight="normal" text-decoration="none" x="117" y="806.5">+updateNote(Note): void</text></g></g><g transform="translate(-94,-14) scale(1,1)"><path fill="none" stroke="#000000" d="M 368 607 L 405 559" stroke-miterlimit="10" stroke-dasharray="3"/></g><g transform="translate(-94,-14) scale(1,1)"><path fill="none" stroke="#000000" d="M 402.1295881053941 569.6188857963209 L 405 559 L 395.46162612930164 564.4789984397496" stroke-miterlimit="10"/></g><g transform="translate(-94,-14) scale(1,1)"><rect fill="#C0C0C0" stroke="none" x="479" y="239" width="139" height="147" opacity="0.2"/></g><g transform="translate(-94,-14) scale(1,1)"><rect fill="#ffffff" stroke="none" x="472" y="232" width="139" height="147"/></g><g transform="translate(-94,-14) scale(1,1)"><path fill="none" stroke="#000000" d="M 472 232 L 611 232 L 611 379 L 472 379 L 472 232 Z Z" stroke-miterlimit="10"/></g><g transform="translate(-94,-14) scale(1,1)"><path fill="none" stroke="#000000" d="M 472 257 L 611 257" stroke-miterlimit="10"/></g><g transform="translate(-94,-14) scale(1,1)"><path fill="none" stroke="#000000" d="M 472 355 L 611 355" stroke-miterlimit="10"/></g><g transform="translate(-94,-14) scale(1,1)"><g><path fill="none" stroke="none"/><text fill="#000000" stroke="none" font-family="Arial" font-size="13px" font-style="normal" font-weight="bold" text-decoration="none" x="512" y="251.5">Reference</text></g></g><g transform="translate(-94,-14) scale(1,1)"><g><path fill="none" stroke="none"/><text fill="#000000" stroke="none" font-family="Arial" font-size="13px" font-style="normal" font-weight="normal" text-decoration="none" x="477" y="274.5">+id: Long</text></g></g><g transform="translate(-94,-14) scale(1,1)"><g><path fill="none" stroke="none"/><text fill="#000000" stroke="none" font-family="Arial" font-size="13px" font-style="normal" font-weight="normal" text-decoration="none" x="477" y="289.5">+title: String</text></g></g><g transform="translate(-94,-14) scale(1,1)"><g><path fill="none" stroke="none"/><text fill="#000000" stroke="none" font-family="Arial" font-size="13px" font-style="normal" font-weight="normal" text-decoration="none" x="477" y="304.5">+authors: List&lt;String&gt;</text></g></g><g transform="translate(-94,-14) scale(1,1)"><g><path fill="none" stroke="none"/><text fill="#000000" stroke="none" font-family="Arial" font-size="13px" font-style="normal" font-weight="normal" text-decoration="none" x="477" y="319.5">+venue: String</text></g></g><g transform="translate(-94,-14) scale(1,1)"><g><path fill="none" stroke="none"/><text fill="#000000" stroke="none" font-family="Arial" font-size="13px" font-style="normal" font-weight="normal" text-decoration="none" x="477" y="334.5">+pages: Integer</text></g></g><g transform="translate(-94,-14) scale(1,1)"><g><path fill="none" stroke="none"/><text fill="#000000" stroke="none" font-family="Arial" font-size="13px" font-style="normal" font-weight="normal" text-decoration="none" x="477" y="349.5">+notes: Set&lt;Note&gt;</text></g></g><g transform="translate(-94,-14) scale(1,1)"><rect fill="#C0C0C0" stroke="none" x="575" y="471" width="181" height="87" opacity="0.2"/></g><g transform="translate(-94,-14) scale(1,1)"><rect fill="#ffffff" stroke="none" x="568" y="464" width="181" height="87"/></g><g transform="translate(-94,-14) scale(1,1)"><path fill="none" stroke="#000000" d="M 568 464 L 749 464 L 749 551 L 568 551 L 568 464 Z Z" stroke-miterlimit="10"/></g><g transform="translate(-94,-14) scale(1,1)"><path fill="none" stroke="#000000" d="M 568 489 L 749 489" stroke-miterlimit="10"/></g><g transform="translate(-94,-14) scale(1,1)"><path fill="none" stroke="#000000" d="M 568 542 L 749 542" stroke-miterlimit="10"/></g><g transform="translate(-94,-14) scale(1,1)"><g><path fill="none" stroke="none"/><text fill="#000000" stroke="none" font-family="Arial" font-size="13px" font-style="normal" font-weight="bold" text-decoration="none" x="647.5" y="483.5">Tag</text></g></g><g transform="translate(-94,-14) scale(1,1)"><g><path fill="none" stroke="none"/><text fill="#000000" stroke="none" font-family="Arial" font-size="13px" font-style="normal" font-weight="normal" text-decoration="none" x="573" y="506.5">+id: Long</text></g></g><g transform="translate(-94,-14) scale(1,1)"><g><path fill="none" stroke="none"/><text fill="#000000" stroke="none" font-family="Arial" font-size="13px" font-style="normal" font-weight="normal" text-decoration="none" x="573" y="521.5">+name: String</text></g></g><g transform="translate(-94,-14) scale(1,1)"><g><path fill="none" stroke="none"/><text fill="#000000" stroke="none" font-family="Arial" font-size="13px" font-style="normal" font-weight="normal" text-decoration="none" x="573" y="536.5">+references: Set&lt;Reference&gt;</text></g></g><g transform="translate(-94,-14) scale(1,1)"><rect fill="#C0C0C0" stroke="none" x="159" y="159" width="128" height="44" opacity="0.2"/></g><g transform="translate(-94,-14) scale(1,1)"><rect fill="#ffffff" stroke="none" x="152" y="152" width="128" height="44"/></g><g transform="translate(-94,-14) scale(1,1)"><path fill="none" stroke="#000000" d="M 152 152 L 280 152 L 280 196 L 152 196 L 152 152 Z Z" stroke-miterlimit="10"/></g><g transform="translate(-94,-14) scale(1,1)"><path fill="none" stroke="#000000" d="M 152 177 L 280 177" stroke-miterlimit="10"/></g><g transform="translate(-94,-14) scale(1,1)"><path fill="none" stroke="#000000" d="M 152 187 L 280 187" stroke-miterlimit="10"/></g><g transform="translate(-94,-14) scale(1,1)"><g><path fill="none" stroke="none"/><text fill="#000000" stroke="none" font-family="Arial" font-size="13px" font-style="normal" font-weight="bold" text-decoration="none" x="162.5" y="171.5">ReferenceDaoIpml</text></g></g><g transform="translate(-94,-14) scale(1,1)"><rect fill="#C0C0C0" stroke="none" x="711" y="615" width="128" height="44" opacity="0.2"/></g><g transform="translate(-94,-14) scale(1,1)"><rect fill="#ffffff" stroke="none" x="704" y="608" width="128" height="44"/></g><g transform="translate(-94,-14) scale(1,1)"><path fill="none" stroke="#000000" d="M 704 608 L 832 608 L 832 652 L 704 652 L 704 608 Z Z" stroke-miterlimit="10"/></g><g transform="translate(-94,-14) scale(1,1)"><path fill="none" stroke="#000000" d="M 704 633 L 832 633" stroke-miterlimit="10"/></g><g transform="translate(-94,-14) scale(1,1)"><path fill="none" stroke="#000000" d="M 704 643 L 832 643" stroke-miterlimit="10"/></g><g transform="translate(-94,-14) scale(1,1)"><g><path fill="none" stroke="none"/><text fill="#000000" stroke="none" font-family="Arial" font-size="13px" font-style="normal" font-weight="bold" text-decoration="none" x="733" y="627.5">TagDaoImpl</text></g></g><g transform="translate(-94,-14) scale(1,1)"><path fill="#C0C0C0" stroke="none" d="M 920 722.5 C 920 716.1487248 925.1487248 711 931.5 711 C 937.8512752 711 943 716.1487248 943 722.5 C 943 728.8512752 937.8512752 734 931.5 734 C 925.1487248 734 920 728.8512752 920 722.5 Z" opacity="0.2"/></g><g transform="translate(-94,-14) scale(1,1)"><path fill="#ffffff" stroke="none" d="M 913 715.5 C 913 709.1487248 918.1487248 704 924.5 704 C 930.8512752 704 936 709.1487248 936 715.5 C 936 721.8512752 930.8512752 727 924.5 727 C 918.1487248 727 913 721.8512752 913 715.5 Z"/></g><g transform="translate(-94,-14) scale(1,1)"><path fill="none" stroke="#000000" d="M 913 715.5 C 913 709.1487248 918.1487248 704 924.5 704 C 930.8512752 704 936 709.1487248 936 715.5 C 936 721.8512752 930.8512752 727 924.5 727 C 918.1487248 727 913 721.8512752 913 715.5 Z" stroke-miterlimit="10"/></g><g transform="translate(-94,-14) scale(1,1)"><path fill="none" stroke="#000000" d="M 848 752 L 1001 752" stroke-miterlimit="10"/></g><g transform="translate(-94,-14) scale(1,1)"><g><path fill="none" stroke="none"/><text fill="#000000" stroke="none" font-family="Arial" font-size="13px" font-style="normal" font-weight="bold" text-decoration="none" x="902" y="746.5">TagDao</text></g></g><g transform="translate(-94,-14) scale(1,1)"><g><path fill="none" stroke="none"/><text fill="#000000" stroke="none" font-family="Arial" font-size="13px" font-style="normal" font-weight="normal" text-decoration="none" x="853" y="769.5">+insertTag(Tag): Long</text></g></g><g transform="translate(-94,-14) scale(1,1)"><g><path fill="none" stroke="none"/><text fill="#000000" stroke="none" font-family="Arial" font-size="13px" font-style="normal" font-weight="normal" text-decoration="none" x="853" y="784.5">+deleteTag(Tag): void</text></g></g><g transform="translate(-94,-14) scale(1,1)"><g><path fill="none" stroke="none"/><text fill="#000000" stroke="none" font-family="Arial" font-size="13px" font-style="normal" font-weight="normal" text-decoration="none" x="853" y="799.5">+findTagById(Long): Tag</text></g></g><g transform="translate(-94,-14) scale(1,1)"><g><path fill="none" stroke="none"/><text fill="#000000" stroke="none" font-family="Arial" font-size="13px" font-style="normal" font-weight="normal" text-decoration="none" x="853" y="814.5">+updateTag(Tag): void</text></g></g><g transform="translate(-94,-14) scale(1,1)"><path fill="#C0C0C0" stroke="none" d="M 213 298.5 C 213 292.1487248 218.1487248 287 224.5 287 C 230.8512752 287 236 292.1487248 236 298.5 C 236 304.8512752 230.8512752 310 224.5 310 C 218.1487248 310 213 304.8512752 213 298.5 Z" opacity="0.2"/></g><g transform="translate(-94,-14) scale(1,1)"><path fill="#ffffff" stroke="none" d="M 206 291.5 C 206 285.1487248 211.1487248 280 217.5 280 C 223.8512752 280 229 285.1487248 229 291.5 C 229 297.8512752 223.8512752 303 217.5 303 C 211.1487248 303 206 297.8512752 206 291.5 Z"/></g><g transform="translate(-94,-14) scale(1,1)"><path fill="none" stroke="#000000" d="M 206 291.5 C 206 285.1487248 211.1487248 280 217.5 280 C 223.8512752 280 229 285.1487248 229 291.5 C 229 297.8512752 223.8512752 303 217.5 303 C 211.1487248 303 206 297.8512752 206 291.5 Z" stroke-miterlimit="10"/></g><g transform="translate(-94,-14) scale(1,1)"><path fill="none" stroke="#000000" d="M 104 328 L 331 328" stroke-miterlimit="10"/></g><g transform="translate(-94,-14) scale(1,1)"><g><path fill="none" stroke="none"/><text fill="#000000" stroke="none" font-family="Arial" font-size="13px" font-style="normal" font-weight="bold" text-decoration="none" x="176.5" y="322.5">ReferenceDao</text></g></g><g transform="translate(-94,-14) scale(1,1)"><g><path fill="none" stroke="none"/><text fill="#000000" stroke="none" font-family="Arial" font-size="13px" font-style="normal" font-weight="normal" text-decoration="none" x="109" y="345.5">+insertReference(Reference): Long</text></g></g><g transform="translate(-94,-14) scale(1,1)"><g><path fill="none" stroke="none"/><text fill="#000000" stroke="none" font-family="Arial" font-size="13px" font-style="normal" font-weight="normal" text-decoration="none" x="109" y="360.5">+deleteReference(Reference): void</text></g></g><g transform="translate(-94,-14) scale(1,1)"><g><path fill="none" stroke="none"/><text fill="#000000" stroke="none" font-family="Arial" font-size="13px" font-style="normal" font-weight="normal" text-decoration="none" x="109" y="375.5">+findReferenceById(Long): Reference</text></g></g><g transform="translate(-94,-14) scale(1,1)"><g><path fill="none" stroke="none"/><text fill="#000000" stroke="none" font-family="Arial" font-size="13px" font-style="normal" font-weight="normal" text-decoration="none" x="109" y="390.5">+updateReference(Reference): void</text></g></g><g transform="translate(-94,-14) scale(1,1)"><path fill="none" stroke="#000000" d="M 747 607 L 698 552" stroke-miterlimit="10" stroke-dasharray="3"/></g><g transform="translate(-94,-14) scale(1,1)"><path fill="none" stroke="#000000" d="M 707.9033505874543 556.7878645701367 L 698 552 L 701.6171948519102 562.3882578618031" stroke-miterlimit="10"/></g><g transform="translate(-94,-14) scale(1,1)"><path fill="none" stroke="#000000" d="M 786 607 Q 880 488 915.75 704" stroke-miterlimit="10"/></g><g transform="translate(-94,-14) scale(1,1)"><path fill="none" stroke="#000000" d="M 204 197 Q 176 248 206 286.1111111111111" stroke-miterlimit="10"/></g><g transform="translate(-94,-14) scale(1,1)"><path fill="none" stroke="#000000" d="M 543 231 L 546 157" stroke-miterlimit="10"/></g><g transform="translate(-94,-14) scale(1,1)"><path fill="#FFFFFF" stroke="none" d="M 549.7944005881858 167.3248498379577 L 546 157 L 541.3822750512917 166.98381772159712 L 545.1088401338598 178.98194336479332"/></g><g transform="translate(-94,-14) scale(1,1)"><path fill="none" stroke="#000000" d="M 549.7944005881858 167.3248498379577 L 546 157 L 541.3822750512917 166.98381772159712 L 545.1088401338598 178.98194336479332 L 549.7944005881858 167.3248498379577" stroke-miterlimit="10"/></g><g transform="translate(-94,-14) scale(1,1)"><g><path fill="none" stroke="none"/><text fill="#000000" stroke="none" font-family="Arial" font-size="13px" font-style="normal" font-weight="normal" text-decoration="none" x="550.5" y="215.5">0..*</text></g></g><g transform="translate(-94,-14) scale(1,1)"><g><path fill="none" stroke="none"/><text fill="#000000" stroke="none" font-family="Arial" font-size="13px" font-style="normal" font-weight="normal" text-decoration="none" x="557" y="171.5">1</text></g></g><g transform="translate(-94,-14) scale(1,1)"><path fill="none" stroke="#000000" d="M 470 455 L 505 380" stroke-miterlimit="10"/></g><g transform="translate(-94,-14) scale(1,1)"><path fill="#000000" stroke="none" d="M 504.5169465318371 390.9893884883052 L 505 380 L 496.8877584958123 387.42910073816034 L 495.6965197627153 399.93602907989583"/></g><g transform="translate(-94,-14) scale(1,1)"><path fill="none" stroke="#000000" d="M 504.5169465318371 390.9893884883052 L 505 380 L 496.8877584958123 387.42910073816034 L 495.6965197627153 399.93602907989583 L 504.5169465318371 390.9893884883052" stroke-miterlimit="10"/></g><g transform="translate(-94,-14) scale(1,1)"><g><path fill="none" stroke="none"/><text fill="#000000" stroke="none" font-family="Arial" font-size="13px" font-style="normal" font-weight="normal" text-decoration="none" x="479.5" y="446.5">0..*</text></g></g><g transform="translate(-94,-14) scale(1,1)"><g><path fill="none" stroke="none"/><text fill="#000000" stroke="none" font-family="Arial" font-size="13px" font-style="normal" font-weight="normal" text-decoration="none" x="503" y="410.5">1</text></g></g><g transform="translate(-94,-14) scale(1,1)"><path fill="none" stroke="#000000" d="M 326 607 Q 216 504 200.66666666666666 696" stroke-miterlimit="10"/></g><g transform="translate(-94,-14) scale(1,1)"><path fill="none" stroke="#000000" d="M 826 65 Q 952 56 893 188.73913043478262" stroke-miterlimit="10"/></g><g transform="translate(-94,-14) scale(1,1)"><path fill="none" stroke="#000000" d="M 471 277 L 273 197" stroke-miterlimit="10" stroke-dasharray="3"/></g><g transform="translate(-94,-14) scale(1,1)"><path fill="none" stroke="#000000" d="M 283.99958232288753 196.90414217809882 L 273 197 L 280.84566096662957 204.7100975348374" stroke-miterlimit="10"/></g><g transform="translate(-94,-14) scale(1,1)"><path fill="none" stroke="#000000" d="M 666 463 Q 704 264 608 157" stroke-miterlimit="10"/></g><g transform="translate(-94,-14) scale(1,1)"><path fill="#FFFFFF" stroke="none" d="M 617.9200197474925 161.7532313439765 L 608 157 L 611.6534711170822 167.37555534883057 L 622.6918406425556 173.37528071618172"/></g><g transform="translate(-94,-14) scale(1,1)"><path fill="none" stroke="#000000" d="M 617.9200197474925 161.7532313439765 L 608 157 L 611.6534711170822 167.37555534883057 L 622.6918406425556 173.37528071618172 L 617.9200197474925 161.7532313439765" stroke-miterlimit="10"/></g><g transform="translate(-94,-14) scale(1,1)"><g><path fill="none" stroke="none"/><text fill="#000000" stroke="none" font-family="Arial" font-size="13px" font-style="normal" font-weight="normal" text-decoration="none" x="678.5" y="452.5">1..*</text></g></g><g transform="translate(-94,-14) scale(1,1)"><g><path fill="none" stroke="none"/><text fill="#000000" stroke="none" font-family="Arial" font-size="13px" font-style="normal" font-weight="normal" text-decoration="none" x="627.5" y="170.5">1</text></g></g><g transform="translate(-94,-14) scale(1,1)"><path fill="none" stroke="#000000" d="M 584 380 L 633 463" stroke-miterlimit="10"/></g><g transform="translate(-94,-14) scale(1,1)"><path fill="#FFFFFF" stroke="none" d="M 624.2085474581908 456.38861873697215 L 633 463 L 631.4584568153036 452.10855176711027 L 621.8156460199757 444.05507387057116"/></g><g transform="translate(-94,-14) scale(1,1)"><path fill="none" stroke="#000000" d="M 624.2085474581908 456.38861873697215 L 633 463 L 631.4584568153036 452.10855176711027 L 621.8156460199757 444.05507387057116 L 624.2085474581908 456.38861873697215" stroke-miterlimit="10"/></g><g transform="translate(-94,-14) scale(1,1)"><g><path fill="none" stroke="none"/><text fill="#000000" stroke="none" font-family="Arial" font-size="13px" font-style="normal" font-weight="normal" text-decoration="none" x="573.5" y="410.5">0..*</text></g></g><g transform="translate(-94,-14) scale(1,1)"><g><path fill="none" stroke="none"/><text fill="#000000" stroke="none" font-family="Arial" font-size="13px" font-style="normal" font-weight="normal" text-decoration="none" x="607.5" y="456.5">1</text></g></g></g></svg>