<svg version="1.1" xmlns="http://www.w3.org/2000/svg" xmlns:xlink="http://www.w3.org/1999/xlink" width="591" height="510"><defs/><g><g transform="translate(-118,-118) scale(1,1)"><path fill="#ffffff" stroke="none" d="M 175.82072727272728 319.18 C 175.82072727272728 314.386167936 179.70656959767274 310.5 184.5 310.5 C 189.29343040232726 310.5 193.17927272727272 314.386167936 193.17927272727272 319.18 C 193.17927272727272 323.973832064 189.29343040232726 327.86 184.5 327.86 C 179.70656959767274 327.86 175.82072727272728 323.973832064 175.82072727272728 319.18 Z"/></g><g transform="translate(-118,-118) scale(1,1)"><path fill="none" stroke="#000000" d="M 175.82072727272728 319.18 C 175.82072727272728 314.386167936 179.70656959767274 310.5 184.5 310.5 C 189.29343040232726 310.5 193.17927272727272 314.386167936 193.17927272727272 319.18 C 193.17927272727272 323.973832064 189.29343040232726 327.86 184.5 327.86 C 179.70656959767274 327.86 175.82072727272728 323.973832064 175.82072727272728 319.18 Z" stroke-miterlimit="10"/></g><g transform="translate(-118,-118) scale(1,1)"><path fill="none" stroke="#000000" d="M 184.5 327.86 L 184.5 345.14" stroke-miterlimit="10"/></g><g transform="translate(-118,-118) scale(1,1)"><path fill="none" stroke="#000000" d="M 175.31018181818183 334.34 L 193.68981818181817 334.34" stroke-miterlimit="10"/></g><g transform="translate(-118,-118) scale(1,1)"><path fill="none" stroke="#000000" d="M 184.5 345.14 L 171.73636363636365 362.5" stroke-miterlimit="10"/></g><g transform="translate(-118,-118) scale(1,1)"><path fill="none" stroke="#000000" d="M 184.5 345.14 L 197.26363636363635 362.5" stroke-miterlimit="10"/></g><g transform="translate(-118,-118) scale(1,1)"><g><path fill="none" stroke="none"/><text fill="#000000" stroke="none" font-family="Arial" font-size="13px" font-style="normal" font-weight="bold" text-decoration="none" x="146.5" y="383">User (Owner)</text></g></g><g transform="translate(-118,-118) scale(1,1)"><path fill="#C0C0C0" stroke="none" d="M 231 159 C 231 145.7451648 323.6770464 135 438 135 C 552.3229536 135 645 145.7451648 645 159 C 645 172.2548352 552.3229536 183 438 183 C 323.6770464 183 231 172.2548352 231 159 Z" opacity="0.2"/></g><g transform="translate(-118,-118) scale(1,1)"><path fill="#ffffff" stroke="none" d="M 224 152 C 224 138.7451648 316.6770464 128 431 128 C 545.3229536 128 638 138.7451648 638 152 C 638 165.2548352 545.3229536 176 431 176 C 316.6770464 176 224 165.2548352 224 152 Z"/></g><g transform="translate(-118,-118) scale(1,1)"><path fill="none" stroke="#000000" d="M 224 152 C 224 138.7451648 316.6770464 128 431 128 C 545.3229536 128 638 138.7451648 638 152 C 638 165.2548352 545.3229536 176 431 176 C 316.6770464 176 224 165.2548352 224 152 Z" stroke-miterlimit="10"/></g><g transform="translate(-118,-118) scale(1,1)"><g><path fill="none" stroke="none"/><text fill="#000000" stroke="none" font-family="Arial" font-size="13px" font-style="normal" font-weight="bold" text-decoration="none" x="343.5" y="159">Insert/Delete/Modify reference</text></g></g><g transform="translate(-118,-118) scale(1,1)"><path fill="none" stroke="#000000" d="M 172 309 Q 128 152 223 152" stroke-miterlimit="10"/></g><g transform="translate(-118,-118) scale(1,1)"><path fill="#C0C0C0" stroke="none" d="M 295 232 C 295 222.6111584 362.3811376 215 445.5 215 C 528.6188624 215 596 222.6111584 596 232 C 596 241.3888416 528.6188624 249 445.5 249 C 362.3811376 249 295 241.3888416 295 232 Z" opacity="0.2"/></g><g transform="translate(-118,-118) scale(1,1)"><path fill="#ffffff" stroke="none" d="M 288 225 C 288 215.6111584 355.3811376 208 438.5 208 C 521.6188624 208 589 215.6111584 589 225 C 589 234.3888416 521.6188624 242 438.5 242 C 355.3811376 242 288 234.3888416 288 225 Z"/></g><g transform="translate(-118,-118) scale(1,1)"><path fill="none" stroke="#000000" d="M 288 225 C 288 215.6111584 355.3811376 208 438.5 208 C 521.6188624 208 589 215.6111584 589 225 C 589 234.3888416 521.6188624 242 438.5 242 C 355.3811376 242 288 234.3888416 288 225 Z" stroke-miterlimit="10"/></g><g transform="translate(-118,-118) scale(1,1)"><g><path fill="none" stroke="none"/><text fill="#000000" stroke="none" font-family="Arial" font-size="13px" font-style="normal" font-weight="bold" text-decoration="none" x="388.5" y="232">Group references</text></g></g><g transform="translate(-118,-118) scale(1,1)"><path fill="none" stroke="#000000" d="M 187 309 Q 192 224 287 224" stroke-miterlimit="10"/></g><g transform="translate(-118,-118) scale(1,1)"><path fill="#C0C0C0" stroke="none" d="M 303 296 C 303 286.6111584 367.0232736 279 446 279 C 524.9767264 279 589 286.6111584 589 296 C 589 305.3888416 524.9767264 313 446 313 C 367.0232736 313 303 305.3888416 303 296 Z" opacity="0.2"/></g><g transform="translate(-118,-118) scale(1,1)"><path fill="#ffffff" stroke="none" d="M 296 289 C 296 279.6111584 360.0232736 272 439 272 C 517.9767264 272 582 279.6111584 582 289 C 582 298.3888416 517.9767264 306 439 306 C 360.0232736 306 296 298.3888416 296 289 Z"/></g><g transform="translate(-118,-118) scale(1,1)"><path fill="none" stroke="#000000" d="M 296 289 C 296 279.6111584 360.0232736 272 439 272 C 517.9767264 272 582 279.6111584 582 289 C 582 298.3888416 517.9767264 306 439 306 C 360.0232736 306 296 298.3888416 296 289 Z" stroke-miterlimit="10"/></g><g transform="translate(-118,-118) scale(1,1)"><g><path fill="none" stroke="none"/><text fill="#000000" stroke="none" font-family="Arial" font-size="13px" font-style="normal" font-weight="bold" text-decoration="none" x="369.5" y="296">Add notes to references</text></g></g><g transform="translate(-118,-118) scale(1,1)"><path fill="none" stroke="#000000" d="M 221 309 Q 240 288 295 288" stroke-miterlimit="10"/></g><g transform="translate(-118,-118) scale(1,1)"><path fill="#C0C0C0" stroke="none" d="M 327 472 C 327 462.6111584 378.93496319999997 455 443 455 C 507.06503680000003 455 559 462.6111584 559 472 C 559 481.3888416 507.06503680000003 489 443 489 C 378.93496319999997 489 327 481.3888416 327 472 Z" opacity="0.2"/></g><g transform="translate(-118,-118) scale(1,1)"><path fill="#ffffff" stroke="none" d="M 320 465 C 320 455.6111584 371.93496319999997 448 436 448 C 500.06503680000003 448 552 455.6111584 552 465 C 552 474.3888416 500.06503680000003 482 436 482 C 371.93496319999997 482 320 474.3888416 320 465 Z"/></g><g transform="translate(-118,-118) scale(1,1)"><path fill="none" stroke="#000000" d="M 320 465 C 320 455.6111584 371.93496319999997 448 436 448 C 500.06503680000003 448 552 455.6111584 552 465 C 552 474.3888416 500.06503680000003 482 436 482 C 371.93496319999997 482 320 474.3888416 320 465 Z" stroke-miterlimit="10"/></g><g transform="translate(-118,-118) scale(1,1)"><g><path fill="none" stroke="none"/><text fill="#000000" stroke="none" font-family="Arial" font-size="13px" font-style="normal" font-weight="bold" text-decoration="none" x="363" y="472">Export shared references</text></g></g><g transform="translate(-118,-118) scale(1,1)"><path fill="none" stroke="#000000" d="M 195 390 Q 216 472 319 469" stroke-miterlimit="10"/></g><g transform="translate(-118,-118) scale(1,1)"><path fill="#ffffff" stroke="none" d="M 644.8207272727273 313.68 C 644.8207272727273 308.886167936 648.7065695976727 305 653.5 305 C 658.2934304023273 305 662.1792727272727 308.886167936 662.1792727272727 313.68 C 662.1792727272727 318.473832064 658.2934304023273 322.36 653.5 322.36 C 648.7065695976727 322.36 644.8207272727273 318.473832064 644.8207272727273 313.68 Z"/></g><g transform="translate(-118,-118) scale(1,1)"><path fill="none" stroke="#000000" d="M 644.8207272727273 313.68 C 644.8207272727273 308.886167936 648.7065695976727 305 653.5 305 C 658.2934304023273 305 662.1792727272727 308.886167936 662.1792727272727 313.68 C 662.1792727272727 318.473832064 658.2934304023273 322.36 653.5 322.36 C 648.7065695976727 322.36 644.8207272727273 318.473832064 644.8207272727273 313.68 Z" stroke-miterlimit="10"/></g><g transform="translate(-118,-118) scale(1,1)"><path fill="none" stroke="#000000" d="M 653.5 322.36 L 653.5 339.64" stroke-miterlimit="10"/></g><g transform="translate(-118,-118) scale(1,1)"><path fill="none" stroke="#000000" d="M 644.3101818181818 328.84 L 662.6898181818182 328.84" stroke-miterlimit="10"/></g><g transform="translate(-118,-118) scale(1,1)"><path fill="none" stroke="#000000" d="M 653.5 339.64 L 640.7363636363636 357" stroke-miterlimit="10"/></g><g transform="translate(-118,-118) scale(1,1)"><path fill="none" stroke="#000000" d="M 653.5 339.64 L 666.2636363636364 357" stroke-miterlimit="10"/></g><g transform="translate(-118,-118) scale(1,1)"><g><path fill="none" stroke="none"/><text fill="#000000" stroke="none" font-family="Arial" font-size="13px" font-style="normal" font-weight="bold" text-decoration="none" x="614.5" y="377.5">User (Viewer)</text></g></g><g transform="translate(-118,-118) scale(1,1)"><path fill="#C0C0C0" stroke="none" d="M 335 536 C 335 526.6111584 383.8009568 519 444 519 C 504.1990432 519 553 526.6111584 553 536 C 553 545.3888416 504.1990432 553 444 553 C 383.8009568 553 335 545.3888416 335 536 Z" opacity="0.2"/></g><g transform="translate(-118,-118) scale(1,1)"><path fill="#ffffff" stroke="none" d="M 328 529 C 328 519.6111584 376.8009568 512 437 512 C 497.1990432 512 546 519.6111584 546 529 C 546 538.3888416 497.1990432 546 437 546 C 376.8009568 546 328 538.3888416 328 529 Z"/></g><g transform="translate(-118,-118) scale(1,1)"><path fill="none" stroke="#000000" d="M 328 529 C 328 519.6111584 376.8009568 512 437 512 C 497.1990432 512 546 519.6111584 546 529 C 546 538.3888416 497.1990432 546 437 546 C 376.8009568 546 328 538.3888416 328 529 Z" stroke-miterlimit="10"/></g><g transform="translate(-118,-118) scale(1,1)"><g><path fill="none" stroke="none"/><text fill="#000000" stroke="none" font-family="Arial" font-size="13px" font-style="normal" font-weight="bold" text-decoration="none" x="368" y="536">Read shared references</text></g></g><g transform="translate(-118,-118) scale(1,1)"><path fill="none" stroke="#000000" d="M 650 384 Q 640 528 547 528" stroke-miterlimit="10"/></g><g transform="translate(-118,-118) scale(1,1)"><path fill="#C0C0C0" stroke="none" d="M 327 608 C 327 598.6111584 379.606536 591 444.5 591 C 509.393464 591 562 598.6111584 562 608 C 562 617.3888416 509.393464 625 444.5 625 C 379.606536 625 327 617.3888416 327 608 Z" opacity="0.2"/></g><g transform="translate(-118,-118) scale(1,1)"><path fill="#ffffff" stroke="none" d="M 320 601 C 320 591.6111584 372.606536 584 437.5 584 C 502.393464 584 555 591.6111584 555 601 C 555 610.3888416 502.393464 618 437.5 618 C 372.606536 618 320 610.3888416 320 601 Z"/></g><g transform="translate(-118,-118) scale(1,1)"><path fill="none" stroke="#000000" d="M 320 601 C 320 591.6111584 372.606536 584 437.5 584 C 502.393464 584 555 591.6111584 555 601 C 555 610.3888416 502.393464 618 437.5 618 C 372.606536 618 320 610.3888416 320 601 Z" stroke-miterlimit="10"/></g><g transform="translate(-118,-118) scale(1,1)"><g><path fill="none" stroke="none"/><text fill="#000000" stroke="none" font-family="Arial" font-size="13px" font-style="normal" font-weight="bold" text-decoration="none" x="363" y="608">Search shared references</text></g></g><g transform="translate(-118,-118) scale(1,1)"><path fill="none" stroke="#000000" d="M 184 390 Q 184 536 327 532" stroke-miterlimit="10"/></g><g transform="translate(-118,-118) scale(1,1)"><path fill="none" stroke="#000000" d="M 178 390 Q 144 600 319 601" stroke-miterlimit="10"/></g><g transform="translate(-118,-118) scale(1,1)"><path fill="none" stroke="#000000" d="M 638 384 Q 608 464 553 464" stroke-miterlimit="10"/></g><g transform="translate(-118,-118) scale(1,1)"><path fill="none" stroke="#000000" d="M 659 384 Q 688 600 556 601" stroke-miterlimit="10"/></g><g transform="translate(-118,-118) scale(1,1)"><path fill="#C0C0C0" stroke="none" d="M 327 360 C 327 350.6111584 378.93496319999997 343 443 343 C 507.06503680000003 343 559 350.6111584 559 360 C 559 369.3888416 507.06503680000003 377 443 377 C 378.93496319999997 377 327 369.3888416 327 360 Z" opacity="0.2"/></g><g transform="translate(-118,-118) scale(1,1)"><path fill="#ffffff" stroke="none" d="M 320 353 C 320 343.6111584 371.93496319999997 336 436 336 C 500.06503680000003 336 552 343.6111584 552 353 C 552 362.3888416 500.06503680000003 370 436 370 C 371.93496319999997 370 320 362.3888416 320 353 Z"/></g><g transform="translate(-118,-118) scale(1,1)"><path fill="none" stroke="#000000" d="M 320 353 C 320 343.6111584 371.93496319999997 336 436 336 C 500.06503680000003 336 552 343.6111584 552 353 C 552 362.3888416 500.06503680000003 370 436 370 C 371.93496319999997 370 320 362.3888416 320 353 Z" stroke-miterlimit="10"/></g><g transform="translate(-118,-118) scale(1,1)"><g><path fill="none" stroke="none"/><text fill="#000000" stroke="none" font-family="Arial" font-size="13px" font-style="normal" font-weight="bold" text-decoration="none" x="364" y="360">Import/Export references</text></g></g><g transform="translate(-118,-118) scale(1,1)"><path fill="none" stroke="#000000" d="M 230 350 L 319 351" stroke-miterlimit="10"/></g><g transform="translate(-118,-118) scale(1,1)"><path fill="#C0C0C0" stroke="none" d="M 367 416 C 367 406.6111584 402.81721600000003 399 447 399 C 491.18278399999997 399 527 406.6111584 527 416 C 527 425.3888416 491.18278399999997 433 447 433 C 402.81721600000003 433 367 425.3888416 367 416 Z" opacity="0.2"/></g><g transform="translate(-118,-118) scale(1,1)"><path fill="#ffffff" stroke="none" d="M 360 409 C 360 399.6111584 395.81721600000003 392 440 392 C 484.18278399999997 392 520 399.6111584 520 409 C 520 418.3888416 484.18278399999997 426 440 426 C 395.81721600000003 426 360 418.3888416 360 409 Z"/></g><g transform="translate(-118,-118) scale(1,1)"><path fill="none" stroke="#000000" d="M 360 409 C 360 399.6111584 395.81721600000003 392 440 392 C 484.18278399999997 392 520 399.6111584 520 409 C 520 418.3888416 484.18278399999997 426 440 426 C 395.81721600000003 426 360 418.3888416 360 409 Z" stroke-miterlimit="10"/></g><g transform="translate(-118,-118) scale(1,1)"><g><path fill="none" stroke="none"/><text fill="#000000" stroke="none" font-family="Arial" font-size="13px" font-style="normal" font-weight="bold" text-decoration="none" x="390.5" y="416">Share references</text></g></g><g transform="translate(-118,-118) scale(1,1)"><path fill="none" stroke="#000000" d="M 230 388 Q 272 424 359 416" stroke-miterlimit="10"/></g></g></svg>